<svg width="320" height="249" xmlns="http://www.w3.org/2000/svg" xmlns:xlink="http://www.w3.org/1999/xlink" xml:space="preserve" overflow="hidden"><g transform="translate(-1221 -608)"><rect x="1228" y="666" width="250" height="184" stroke="#0D0D0D" stroke-width="13.75" stroke-miterlimit="8" fill="none"/><rect x="1228" y="710" width="250" height="51.0002" stroke="#0D0D0D" stroke-width="13.75" stroke-miterlimit="8" fill="none"/><path d="M1369 697.5C1369 651.936 1405.94 615 1451.5 615 1497.06 615 1534 651.936 1534 697.5 1534 743.063 1497.06 780 1451.5 780 1405.94 780 1369 743.063 1369 697.5Z" stroke="#0D0D0D" stroke-width="13.75" stroke-miterlimit="8" fill="#FFFFFF" fill-rule="evenodd"/><path d="M1417.09 688.298 1441.3 688.298 1441.3 665.562 1462.7 665.562 1462.7 688.298 1486.91 688.298 1486.91 709.702 1462.7 709.702 1462.7 732.438 1441.3 732.438 1441.3 709.702 1417.09 709.702Z" stroke="#0D0D0D" stroke-width="4.58333" stroke-miterlimit="8" fill="#0D0D0D" fill-rule="evenodd"/></g></svg>